# AST/ASF file generated using VICON BodyLanguage
# -----------------------------------------------
:version 1.10
:name VICON
:units
  mass 1.0
  length 0.45
  angle deg
:documentation
   .ast/.asf automatically generated from VICON data using
   VICON BodyBuilder and BodyLanguage model FoxedUp or BRILLIANT.MOD
:root
   order TX TY TZ RX RY RZ
   axis XYZ
   position 0 0 0  
   orientation 0 0 0 
:bonedata
  begin
     id 1 
     name lhipjoint
     direction 0.64773 -0.699417 0.302095 
     length 2.48597 
     axis 0 0 0  XYZ
  end
  begin
     id 2 
     name lfemur
     direction 0.34202 -0.939693 0  
     length 6.71947  
     axis 0 0 20  XYZ
    dof rx ry rz
    limits (-160.0 20.0)
           (-70.0 70.0)
           (-60.0 70.0)
  end
  begin
     id 3 
     name ltibia
     direction 0.34202 -0.939693 0   
     length 8.08777   
     axis 0 0 20   XYZ
    dof rx
    limits (-10.0 170.0)
  end
  begin
     id 4 
     name lfoot
     direction 0.0808503 -0.222134 0.971658   
     length 2.08264   
     axis -90 7.62852e-016 20   XYZ
    dof rx rz
    limits (-45.0 90.0)
           (-70.0 20.0)
  end
  begin
     id 5 
     name ltoes
     direction 1.53502e-011 -4.22007e-011 1   
     length 1.04662   
     axis -90 7.62852e-016 20   XYZ
    dof rx
    limits (-90.0 20.0)
  end
  begin
     id 6 
     name rhipjoint
     direction -0.610924 -0.726792 0.313919   
     length 2.39233  
     axis 0 0 0  XYZ 
  end
  begin
     id 7 
     name rfemur
     direction -0.34202 -0.939693 0   
     length 6.96955   
     axis 0 0 -20   XYZ
    dof rx ry rz
    limits (-160.0 20.0)
           (-70.0 70.0)
           (-70.0 60.0)
  end
  begin
     id 8 
     name rtibia
     direction -0.34202 -0.939693 0   
     length 8.19584   
     axis 0 0 -20   XYZ
    dof rx
    limits (-10.0 170.0)
 end
 begin
     id 9 
     name rfoot
     direction -0.077777 -0.213691 0.9738   
     length 2.07539  
     axis -90 -7.62852e-016 -20   XYZ
    dof rx rz
    limits (-45.0 90.0)
           (-20.0 70.0)
  end
  begin
     id 10 
     name rtoes
     direction -1.53558e-011 -4.22006e-011 1   
     length 1.04381   
     axis -90 -7.62852e-016 -20   XYZ
    dof rx
    limits (-90.0 20.0)
  end
  begin
     id 11 
     name lowerback
     direction -0.00971646 0.996074 0.0879841   
     length 1.67643   
     axis 0 0 0   XYZ
    dof rx ry rz
    limits (-20.0 45.0)
           (-30.0 30.0)
           (-30.0 30.0)
  end
  begin
     id 12 
     name upperback
     direction 0.0127391 0.991676 0.128127   
     length 1.63741   
     axis 0 0 0   XYZ
    dof rx ry rz
    limits (-20.0 45.0)
           (-30.0 30.0)
           (-30.0 30.0)
  end
  begin
     id 13 
     name thorax
     direction 0.0167583 0.996049 0.0872067   
     length 1.65931   
     axis 0 0 0   XYZ
    dof rx ry rz
    limits (-20.0 45.0)
           (-30.0 30.0)
           (-30.0 30.0)
  end
  begin
     id 14 
     name lowerneck
     direction -0.0317829 0.998312 0.0486079   
     length 1.79021   
     axis 0 0 0   XYZ
    dof rx ry rz
    limits (-20.0 45.0)
           (-30.0 30.0)
           (-30.0 30.0)
  end
  begin
     id 15 
     name upperneck
     direction 0.0896851 0.972452 -0.215159   
     length 1.78797   
     axis 0 0 0   XYZ
    dof rx ry rz
    limits (-20.0 45.0)
           (-30.0 30.0)
           (-30.0 30.0)
  end
  begin
     id 16
     name head
     direction 0.0310949 0.996503 -0.0775582  
     length 1.81549  
     axis 0 0 0   XYZ
    dof rx ry rz
    limits (-20.0 45.0)
           (-30.0 30.0)
           (-30.0 30.0)
  end
  begin
     id 17 
     name lclavicle
     direction 0.853638 0.502051 -0.138733  
     length 3.31627  
     axis 0 0 0   XYZ
    dof ry rz
    limits (-20.0 10.0)
           (0.0 20.0)
  end
  begin
     id 18 
     name lhumerus
     direction 1 -4.48962e-011 -1.41788e-018   
     length 5.54893   
     axis 180 -30 -90   XYZ
    dof rx ry rz
    limits (-60.0 90.0)
           (-90.0 90.0)
           (-90.0 90.0)
  end
  begin
     id 19
     name lradius
     direction 1 -4.48962e-011 -4.95754e-027   
     length 3.02898   
     axis 180 -30 -90   XYZ
    dof rx
    limits (-10.0 170.0)
  end
  begin
     id 20
     name lwrist
     direction 1 -4.48952e-011 -1.03764e-026   
     length 1.51449   
     axis 9.09556e-015 90 90   XYZ
    dof ry
    limits (-180.0 0.0)
 end
  begin
     id 21 
     name lhand
     direction 1 -4.4902e-011 -2.07528e-026   
     length 0.640951   
     axis 1.3242e-014 90 90   XYZ
    dof rx rz
    limits (-90.0 90.0)
           (-45.0 45.0)
  end
  begin
     id 22 
     name lfingers
     direction 1 -4.49014e-011 -4.15056e-026   
     length 0.516751   
     axis 2.64841e-014 90 90   XYZ
    dof rx
    limits (0.0 90.0)
  end
  begin
     id 23
     name lthumb
     direction 0.707107 -6.35008e-011 0.707107   
     length 0.741954   
     axis -90 45 2.85299e-015   XYZ
    dof rx rz
    limits (-45.0 45.0)
           (-45.0 45.0)
  end
  begin
     id 24 
     name rclavicle
     direction -0.888531 0.455324 -0.0565039   
     length 3.20126  
     axis 0 0 0   XYZ 
    dof ry rz
    limits (-10.0 20.0)
           (-20.0 0.0)
  end
  begin
     id 25 
     name rhumerus
     direction -1 -4.48946e-011 -8.98298e-028  
     length 5.3519   
     axis 180 30 90   XYZ
    dof rx ry rz
    limits (-90.0 60.0)
           (-90.0 90.0)
           (-90.0 90.0)
  end
  begin
     id 26 
     name rradius
     direction -1 -4.4899e-011 -3.18779e-027   
     length 3.02531   
     axis 180 30 90   XYZ
    dof rx
    limits (-10.0 170.0)
  end
  begin
     id 27 
     name rwrist
     direction -1 -4.4897e-011 -1.03764e-026   
     length 1.51266   
     axis 9.09556e-015 -90 -90   XYZ
    dof ry
    limits (-180.0 0.0)
  end
  begin
     id 28
     name rhand
     direction -1 -4.48941e-011 -2.07528e-026   
     length 0.78389   
     axis 1.3242e-014 -90 -90   XYZ
    dof rx rz
    limits (-90.0 90.0)
           (-45.0 45.0)
  end
  begin
     id 29
     name rfingers
     direction -1 -4.49012e-011 -4.15056e-026   
     length 0.631992   
     axis 2.64841e-014 -90 -90   XYZ
    dof rx
    limits (0.0 90.0)
  end
  begin
     id 30
     name rthumb
     direction -0.707107 -6.3496e-011 0.707107   
     length 0.907418   
     axis -90 -45 -2.85299e-015   XYZ
    dof rx rz
    limits (-45.0 45.0)
           (-45.0 45.0)
  end
:hierarchy
  begin
    root lhipjoint rhipjoint lowerback
    lhipjoint lfemur
    lfemur ltibia
    ltibia lfoot
    lfoot ltoes
    rhipjoint rfemur
    rfemur rtibia
    rtibia rfoot
    rfoot rtoes
    lowerback upperback
    upperback thorax
    thorax lowerneck lclavicle rclavicle
    lowerneck upperneck
    upperneck head
    lclavicle lhumerus
    lhumerus lradius
    lradius lwrist
    lwrist lhand lthumb
    lhand lfingers
    rclavicle rhumerus
    rhumerus rradius
    rradius rwrist
    rwrist rhand rthumb
    rhand rfingers
  end

#!OML:ASF E:\Style3\Style3.ASF
:FULLY-SPECIFIED
:DEGREES
1131
root -0.665876 17.7831 2.43715 -697.539 56.196 -714.687
lowerback 7.74596 -7.20317 0.297529
upperback -2.98664 -9.34085 3.78272
thorax -6.86179 -4.5144 5.03947
lowerneck -10.1792 0.716566 -2.85623
upperneck 9.86409 1.5439 -1.20169
head 4.61525 0.579818 0.19887
rclavicle -1.32689e-013 3.18055e-015
rhumerus 6.18653 1.1212 -86.5536
rradius 135.297
rwrist 23.3338
rhand 21.7659 -2.9611
rfingers 7.12502
rthumb 46.1765 -25.9818
lclavicle -1.32689e-013 3.18055e-015
lhumerus 5.25257 -9.06169 92.5703
lradius 131.128
lwrist -8.64274
lhand 22.4076 35.041
lfingers 7.12502
lthumb 46.771 57.8074
rfemur -38.2485 25.2027 3.16257
rtibia 24.0394
rfoot -10.0263 4.93762
rtoes -21.1264
lfemur -24.9685 4.80676 -14.4329
ltibia 34.4531
lfoot -7.58383 38.1127
ltoes -2.91771
1132
root -0.684212 17.7865 2.45673 -697.621 57.4657 -714.585
lowerback 7.77462 -7.12437 0.21219
upperback -3.00469 -9.23356 3.91015
thorax -6.87052 -4.45422 5.21052
lowerneck -10.1246 1.12291 -2.47333
upperneck 9.84834 2.0683 -1.51649
head 4.60427 0.832943 0.0752866
rclavicle 1.28415e-013 -7.15625e-015
rhumerus 6.19052 1.13918 -86.3089
rradius 135.274
rwrist 23.0522
rhand 21.9553 -2.92783
rfingers 7.12502
rthumb 46.352 -25.8743
lclavicle 1.28415e-013 -7.15625e-015
lhumerus 5.0344 -9.00075 92.7508
lradius 131.1
lwrist -8.55067
lhand 22.3004 35.2966
lfingers 7.12502
lthumb 46.6717 58.1061
rfemur -37.6954 24.7675 3.67503
rtibia 24.1252
rfoot -10.1285 4.28489
rtoes -21.497
lfemur -25.0432 4.07814 -13.986
ltibia 34.3372
lfoot -7.20214 37.9502
ltoes -2.73876
1133
root -0.699023 17.7897 2.47595 -697.638 58.6795 -714.49
lowerback 7.83341 -7.06951 0.0636636
upperback -3.08648 -9.16024 4.08913
thorax -6.94437 -4.40435 5.48481
lowerneck -10.2011 1.63599 -2.08357
upperneck 9.91202 2.74381 -1.84758
head 4.64351 1.15736 -0.0425254
rclavicle 4.1546e-014 -3.06128e-014
rhumerus 6.17637 1.27026 -86.1262
rradius 135.272
rwrist 22.9221
rhand 22.3438 -2.74089
rfingers 7.12502
rthumb 46.7119 -25.533
lclavicle 4.1546e-014 -3.06128e-014
lhumerus 4.74832 -8.80619 92.8741
lradius 131.107
lwrist -8.54574
lhand 21.9925 35.3153
lfingers 7.12502
lthumb 46.3865 58.2471
rfemur -37.2315 24.3158 4.12631
rtibia 24.1883
rfoot -10.2162 3.70742
rtoes -21.5424
lfemur -25.1949 3.31675 -13.5581
ltibia 34.2555
lfoot -7.08389 37.8019
ltoes -2.91199
1134
root -0.711106 17.7888 2.4948 -697.8 59.9111 -714.514
lowerback 7.78384 -6.9709 0.222206
upperback -3.0907 -9.00712 4.12299
thorax -6.95231 -4.33395 5.4105
lowerneck -10.2105 2.10119 -1.74841
upperneck 9.93771 3.3374 -1.99086
head 4.66012 1.45204 -0.0995074
rclavicle -3.10104e-014 -1.66979e-014
rhumerus 6.13968 1.11947 -86.0006
rradius 135.213
rwrist 22.9847
rhand 22.4333 -2.21007
rfingers 7.12502
rthumb 46.7947 -24.9662
lclavicle -3.10104e-014 -1.66979e-014
lhumerus 4.55899 -8.72506 92.8615
lradius 131.142
lwrist -8.44597
lhand 22.2089 35.2991
lfingers 7.12502
lthumb 46.587 58.1452
rfemur -36.7449 23.9782 4.59719
rtibia 24.2405
rfoot -10.2463 3.08609
rtoes -21.5837
lfemur -25.3193 2.69392 -13.1419
ltibia 34.2056
lfoot -6.10054 37.6647
ltoes -4.76715
1135
root -0.724651 17.7864 2.51227 -698.05 61.1452 -714.679
lowerback 7.71272 -6.90766 0.582366
upperback -3.02598 -8.87898 4.17215
thorax -6.90024 -4.28593 5.23688
lowerneck -10.569 2.63585 -1.6054
upperneck 10.0455 4.05644 -2.06666
head 4.75841 1.8007 -0.0898976
rclavicle -4.96962e-015 -3.49861e-014
rhumerus 6.27619 1.10236 -85.898
rradius 135.084
rwrist 23.1215
rhand 22.4456 -1.57355
rfingers 7.12502
rthumb 46.8062 -24.3247
lclavicle -4.96962e-015 -3.49861e-014
lhumerus 4.68776 -8.34845 92.8352
lradius 131.203
lwrist -8.31716
lhand 22.3748 35.339
lfingers 7.12502
lthumb 46.7407 58.1186
rfemur -36.3481 23.7022 5.09299
rtibia 24.3147
rfoot -10.2454 2.36162
rtoes -21.4015
lfemur -25.5299 2.1636 -12.6803
ltibia 34.1953
lfoot -4.5892 37.5179
ltoes -6.79705
1136
root -0.737882 17.7855 2.52631 -698.263 62.4799 -714.766
lowerback 7.59561 -6.88558 1.02049
upperback -2.83306 -8.8034 4.20556
thorax -6.69478 -4.27155 4.99125
lowerneck -11.3081 3.1795 -1.58638
upperneck 10.2226 4.80457 -2.03642
head 4.93749 2.16021 -0.0155487
rclavicle 4.1546e-014 7.63333e-014
rhumerus 6.66701 1.17994 -85.8701
rradius 135.139
rwrist 22.9993
rhand 22.8381 -1.6808
rfingers 7.12502
rthumb 47.1693 -24.2721
lclavicle 4.1546e-014 7.63333e-014
lhumerus 5.34936 -7.86876 92.9915
lradius 131.253
lwrist -8.40359
lhand 22.8973 35.8333
lfingers 7.12502
lthumb 47.224 58.4002
rfemur -35.9096 23.2805 5.63173
rtibia 24.4439
rfoot -10.2959 1.65833
rtoes -21.3786
lfemur -25.7357 1.71733 -12.2443
ltibia 34.1808
lfoot -3.48368 37.1079
ltoes -8.32436
1137
root -0.752942 17.7823 2.54156 -698.295 63.7694 -714.645
lowerback 7.24754 -6.8212 1.33194
upperback -2.59744 -8.71332 4.02869
thorax -6.32654 -4.25352 4.55588
lowerneck -11.3564 3.73109 -1.15276
upperneck 10.0212 5.46578 -2.01272
head 4.89469 2.50494 -0.029556
rclavicle 1.6022e-013 -5.88403e-014
rhumerus 6.91177 1.14193 -85.9932
rradius 135.319
rwrist 23.1066
rhand 23.2372 -2.09032
rfingers 7.12502
rthumb 47.538 -24.5159
lclavicle 1.6022e-013 -5.88403e-014
lhumerus 5.77548 -7.81183 92.8803
lradius 131.327
lwrist -8.52449
lhand 23.3716 36.4275
lfingers 7.12502
lthumb 47.6621 58.7964
rfemur -35.4741 22.7936 6.08607
rtibia 24.5994
rfoot -10.3875 0.998624
rtoes -21.6146
lfemur -25.9257 1.3827 -11.9006
ltibia 34.1383
lfoot -2.88268 36.5192
ltoes -9.12931
